<svg xmlns="http://www.w3.org/2000/svg" xmlns:xlink="http://www.w3.org/1999/xlink" viewBox="0 0 58.4 29.5"><defs><path id="b" d="M-145.4 138.5v.2l.2.1h.1v.2h-1.4v-.1h.2v-.1l.1-.1V136v-.2h-.1l-.2-.1v-.2h1.4v.2h-.2l-.1.2v2.5z"/><path id="c" d="M-156.9 144.9h.3l.1-.2v-.1-.2l.1-.6v-.6l.1-.6v-.6-.1h-.1l-.1-.1h-.1v-.2h.9l1 2.4h.1l1.1-2.3h.9l-.1.1-.1.1V144.7h.2v.1H-152.2v.2h-1.6v-.1H-153.6l.1-.1v-2.1l-1.1 2.3H-155l-1-2.3v.2l-.1.3v1.6H-155.6v.2h-1.1z"/><filter id="a" x="0" width="1" y="0" height="1" color-interpolation-filters="sRGB"><feGaussianBlur/></filter></defs><g transform="translate(186.7 -125.6)"><path d="M-181.9 126.9a4.1 4.1 0 00-4.1 4.1v18.6a4.1 4.1 0 004.1 4.2h18.6a4.1 4.1 0 004.2-4.2V131a4.1 4.1 0 00-4.2-4.1z" fill="none" stroke="#0ff" stroke-width=".5" stroke-dasharray="0 1" stroke-linecap="round"/><g fill="#00e1e1" filter="url(#a)"><path d="M-182.5 147q.8 0 1.1-.2.4-.1.6-.4.2-.3.2-.7v-.8l.2-2.6.2-2.5.1-2.4.1-2.4v-.4l-.2-.4-.3-.3-.4-.2h-.4v-.6H-177.4v.2l4.6 10q0 .2.2.2h.1l.1-.2 4.5-9.9q0-.2.2-.3H-163.8v.5h-.3l-.5.3q-.3 0-.5.3-.2.2-.2.6l.6 11q0 .3.2.5l.3.4q.3 0 .5.2h.4l.4.1h.2v.6H-169.6v-.5l.6-.1.6-.1.5-.3q.2-.2.2-.5l-.5-8.5-4.6 9.8q0 .2-.2.2h-.8q-.2 0-.3-.2l-4.4-9.7v-.1l-.2.1v2.3l-.2 1.6v1.6l-.2 1.5v1.5q0 .2.2.3l.4.3.6.2h.6v.6H-182.5zM-156.8 138.9h.2l.2-.2v-2.6-.2h-.1l-.1-.1h-.2v-.2h2l.4.2.3.4v.7l-.1.2-.2.2h-.2l.7 1.2.2.3.3.2h-.3-.5l-.1-.2-.2-.2-.2-.2-.1-.2-.2-.3-.1-.2-.1-.2h-.4V138.7h.1l.2.1h.2v.2h-1.7v-.1zm1.1-1.7v.1H-155l.2-.2.1-.3v-.3-.3l-.1-.2-.2-.2h-.3-.1-.1v1.4zM-153.3 138.9h.2l.2-.2v-.2l1-2.8h.7l1 2.8v.1h.1l.1.2H-149.7v.2h-1.6v-.1h.2l.2-.1.1-.2-.3-.9h-1-.1l-.1.4-.1.3v.1l-.1.1v.2h.5v.2h-1.3zm1.3-1.6h.7l-.3-.9h-.1zM-147.5 137h.2l.1-.3h.1v1l-.1-.2-.1-.1h-.1-.9v1.3h.1l.2.1h.1v.2h-1.5v-.1h.1l.2-.2V136v-.2h-.1-.2v-.1h2.4v.6h-.1v-.2h-.1v-.1h-.1-.1-.9v1h.8z"/><use xlink:href="#b"/><path d="M-144.7 139v-.1H-144.4l.1-.2V136v-.1l-.1-.1H-144.7v-.2h2.6l.5.3.4.3.2.5.1.5v.5l-.2.5-.3.3-.4.3-.5.1-.5.1h-1.8zm1.2-.4v.1h.1l.2.1h.2q.7 0 1-.4.4-.4.4-1.1v-.6l-.3-.5-.4-.3-.6-.1h-.6v2.8z"/><use xlink:href="#c"/><path d="M-151.7 142v-.2h-.2-.2v-.2h1.5v.1h-.1l-.1.1-.1.1v1.9q0 .4.2.7.2.3.7.3l.4-.1q.2 0 .3-.2l.2-.3.1-.4v-1.5-.2-.1l-.1-.2h-.4v-.2h1.3v.1h-.2l-.1.1-.1.1V143.6l-.2.6q0 .3-.2.5l-.5.3h-1.3l-.3-.2q-.2 0-.3-.2l-.2-.3V142zM-148 145v-.1h.1l.2-.1v-.1l.1-.2V142v-.1-.1h-.2l-.1-.1v-.2h1.4v.2h-.2l-.2.2v1.1h1.7v-1-.2H-145.5l-.2-.1v-.2h1.6v.2h-.1-.1l-.1.2v2.7h.1l.3.1v.2h-1.8v-.1h.2l.2-.1.2-.1v-1.2h-1.7v1.2h.1l.2.1h.1v.2h-1.5zM-142.2 143.8l-1-1.6v-.1l-.1-.1-.2-.1h-.1v-.1h-.2v-.1h1.5l-.1.1v.2l.7 1.2h.1l.6-1v-.2-.1-.1h-.2v-.1H-140.1l-.2.2-.2.1v.1l-1 1.6v.8l.1.3h.4v.2h-1.6v-.1h.1l.3-.1v-.3z"/><use xlink:href="#c" x="17"/><use xlink:href="#b" x="11.5" y="6"/><path d="M-133.1 145v-.1h.1l.2-.1v-.1-.2-2.5-.1h-.1l-.1-.1h-.1v-.2h1l2.1 2.3v-1.4-.4-.2l-.2-.1H-130.5v-.2h1.3v.2h-.2l-.1.1-.1.2v2.9h-.1-.1-.1-.1l-2.3-2.6V144.8h.5v.2h-1.3z"/></g><rect width="23.7" height="23.7" x="-184.4" y="128.5" ry="3.9" fill="none" stroke="#0ff" stroke-width=".5"/></g></svg>