<svg xmlns="http://www.w3.org/2000/svg" viewBox="0 0 2053 369" letter-spacing="0" word-spacing="0"><g font-family="Pacifico" fill="teal"><path d="M78 251q-35 0-56-13-22-13-22-41 0-14 5-22t15-8q7 0 12 4 4 4 4 9v10l-1 3v6q0 12 12 18 12 5 34 5t35-7q12-9 12-23 0-9-5-16-6-6-15-10l-25-11-33-15q-13-7-22-20-9-12-9-30 0-19 10-34 11-15 30-23t45-8q19 0 35 5 16 6 26 18 10 11 10 28t-5 25q-5 9-15 9-7 0-12-4-4-5-4-11l1-9V76q0-11-11-17-10-6-27-6-22 0-34 9-12 8-12 23 0 10 6 17t15 12l26 12 33 14q12 7 20 18 9 12 9 28 0 32-24 49-23 16-63 16zm244-83q4 0 6 3 2 4 2 9 0 13-8 15-16 6-35 7-5 22-20 35-15 14-34 14-15 0-27-8-11-8-17-21-6-12-6-27 0-20 8-36t21-24q14-9 30-9 20 0 32 14 13 13 15 34 12-1 30-6h3zm-86 54q8 0 14-6 6-7 9-20-9-6-13-15t-4-19v-8h-1q-10 0-18 10-6 10-6 29 0 14 5 22 6 7 14 7z"/><path d="M412 175q8 0 8 11 0 21-33 21l-18-2 5 36q3 20 3 33 0 29-10 44-9 15-24 15-19 0-27-27t-8-82q0-50 11-103 11-52 30-86 19-35 42-35 13 0 19 12 8 11 8 29 0 63-75 136l-2 45 1 56q2 29 7 29 7 0 7-27 0-21-2-40l-8-41 2-9 7-9q3-4 6-4h13l6 1 23-2 5-1h4zM386 27q-5 0-12 16t-14 43q-7 26-12 56 21-24 33-50 11-26 11-49 0-16-6-16z"/><path d="m446 151-1 21q0 19 2 30 2 10 7 15 5 4 13 4l10-2 10-7q3-3 6-3t5 4q2 3 2 8l-2 10q-2 5-6 8-13 12-31 12-25 0-37-21-11-22-11-55l1-24h-11q-8 0-11-3-2-3-2-9 0-15 12-15h15q4-29 14-53 9-24 22-39 13-14 28-14 11 0 18 10 6 10 6 25 0 41-34 71h29q4 0 6 2t2 7q0 18-30 18zm28-107q-4 0-9 10-5 9-9 27-5 18-7 39 15-13 23-30t8-31q0-15-6-15zm353 146q3 0 5 3 2 4 2 9 0 10-5 16-26 33-56 33-25 0-41-20-15-20-15-57l1-18-38 5-19 1-15 66q-6 23-21 23-17 0-17-15l1-10 14-61h-12q-9 0-13-3t-4-10q0-8 5-12 5-5 17-5l14-1q7-37 7-57 0-12-4-16-4-5-10-5-18 0-42 31-3 4-7 4t-7-3q-2-3-2-9 0-8 6-17 12-16 30-27 17-10 36-10 17 0 26 12 10 11 10 36 0 22-7 60l26-2q17 0 29-2 5-29 14-55 10-25 25-41 14-16 32-16 13 0 21 11 8 10 8 27 0 66-67 91l-1 22q0 28 7 39 7 12 19 12 11 0 20-6 9-5 21-19 3-4 7-4zM791 40q-6 0-13 11-6 10-12 29l-9 40q21-9 31-25t10-42q0-6-2-9-2-4-5-4z"/><path d="M845 251q-16 0-26-12t-10-32q0-21 10-40t26-30q16-12 35-12 5 0 7 3l4 8 11-1q13 0 13 9l-4 26q-6 31-6 43 0 4 2 6t5 2q5 0 13-6l19-21q3-4 7-4 3 0 5 3 2 4 2 9 0 11-5 16-10 14-23 23-12 10-23 10-9 0-16-6t-11-17q-14 23-35 23zm10-27q6 0 11-7t7-18l10-49q-11 0-20 8-10 8-15 22-6 13-6 28 0 8 3 12 4 4 10 4z"/><path d="M956 251q-10 0-15-11-3-11-3-34 0-34 9-65 3-8 8-11 6-4 15-4l8 1q2 2 2 5l-4 19-4 19-3 19q9-22 20-37 10-14 21-20 10-6 19-6 17 0 17 17l-2 17-2 13q0 9 6 9 8 0 19-11 4-4 8-4 3 0 5 3t2 8q0 10-5 16l-18 13q-10 5-21 5-14 0-21-7t-7-19l1-8v-7q0-5-3-5-4 0-10 9-7 9-13 24-6 14-10 30-3 13-7 17-4 5-12 5z"/><path d="M1154 190q3 22 8 43l1 7q0 12-14 12-9 0-13-4-4-5-8-17v-1q-10 12-19 16-7 5-18 5-16 0-27-12-10-13-10-32 0-21 9-39t25-29q15-12 34-14 5-50 20-87 14-38 37-38 12 0 19 11 8 10 8 31 0 29-14 68-15 39-38 80zm22-164q-7 0-14 40-7 39-9 85 29-64 29-103 0-10-2-16-1-6-4-6zm-76 198q6 0 10-4 5-4 13-16-3-19-3-39l1-13q-15 4-24 19-10 15-10 33 0 20 13 20zm232 27q-35 0-57-13-21-13-21-41 0-14 5-22t15-8q7 0 12 4 4 4 4 9l-1 10v9q0 12 12 18 12 5 33 5 23 0 36-7 12-9 12-23 0-9-6-16-5-6-14-10l-25-11-33-15q-13-7-22-20-9-12-9-30 0-19 10-34t29-23q20-8 46-8 19 0 35 5 16 6 26 18 10 11 10 28t-5 25q-5 9-15 9-7 0-12-4-4-5-4-11v-9l1-10q0-11-11-17t-27-6q-22 0-35 9-11 8-11 23 0 10 6 17t15 12l26 12 32 14q13 7 21 18 9 12 9 28 0 32-24 49-24 16-63 16zm201-125 8 1q2 2 2 6l-6 45-8 44q-9 68-27 108-17 40-45 40-14 0-22-9-9-8-9-22 0-12 6-25t21-30q16-17 44-38l1-6 4-28q-5 19-15 29-9 10-20 10-12 0-20-11-7-11-7-28 0-20 3-36 2-17 8-35 3-8 8-12 5-3 15-3 6 0 8 2t2 5l-3 15-4 17-4 21-1 16q0 10 5 10 4 0 10-8 6-7 13-24 7-16 13-39 2-8 6-12 5-3 14-3zm-73 218q6 0 14-15 9-16 17-52-21 18-30 32t-9 25q0 4 2 7t6 3zm147-88q-14 0-22-6-7-6-7-14 0-7 5-12t15-5l8 1h7q0-7-3-13l-7-11-8-10q-8 15-16 26-8 10-18 19-4 5-10 5-4 0-7-3-2-3-2-8t4-9l3-5q15-18 22-29l11-21 11-26q5-12 21-12l11 1q3 2 3 5l-2 5-2 6q-5 10-5 17l2 8 9 12q9 11 13 19t4 17v8q13-5 30-27 3-4 7-4t6 3q2 4 2 9 0 10-5 16-13 17-26 23-11 6-29 6-11 9-25 9z"/><path d="M1788 190q4 0 6 3 2 4 2 9 0 11-5 16-12 15-25 24-14 9-31 9-54 0-54-76l1-24h-11q-7 0-10-3t-3-9q0-15 12-15h15q4-29 14-53 9-24 22-39 13-14 28-14 11 0 18 10 6 10 6 25 0 41-34 71h29q5 0 6 2 2 2 2 7 0 18-30 18h-32v21q0 27 6 38t21 11q11 0 20-6l20-21q3-4 7-4zm-46-146q-4 0-9 10-5 9-9 27l-7 39q15-13 23-30t8-31q0-15-6-15z"/><path d="M1892 190q4 0 6 3 2 4 2 9 0 11-5 16-10 12-28 22-18 11-38 11-28 0-43-16-16-15-16-41 0-18 8-34t21-25q14-9 31-9 16 0 25 9t9 25q0 18-13 31t-44 21q6 12 25 12 12 0 27-8 15-9 26-22 3-4 7-4zm-66-38q-10 0-17 11-7 12-7 28 16-3 25-11 9-7 9-17 0-5-3-8t-7-3z"/><path d="M1897 251q-10 0-14-11t-4-34q0-34 10-65 2-8 7-11 6-4 16-4l7 1q2 2 2 5l-4 19-4 19-3 19q8-21 17-35 10-14 21-21 10-7 20-7 9 0 12 4 4 4 4 13t-5 31l-2 14q8-22 19-36t21-20q10-6 19-6t13 4q4 5 4 13l-3 26-4 31-1 32q0 10-5 14-4 5-13 5t-13-5q-4-4-4-13 0-11 4-35l3-27q0-5-3-5t-9 9q-7 9-13 24-6 14-10 30-3 13-7 17-4 5-12 5-9 0-14-9-4-8-4-20 0-10 3-29l2-22q0-5-3-5-4 0-10 10-6 9-12 24t-9 29q-3 13-7 17-4 5-12 5z"/></g></svg>