<svg xmlns="http://www.w3.org/2000/svg" fill="teal" viewBox="0 0 1024 224"><path d="M61 143q-17 0-27-6t-10-19q0-7 2-11 3-4 8-4 3 0 5 2t2 5v9q0 5 5 8 6 3 17 3 10 0 16-4t6-11q0-4-3-7-2-3-7-5l-12-5-15-7q-6-4-11-10-4-6-4-14 0-9 5-16 5-8 14-11 9-4 21-4 9 0 17 2 8 3 12 9 5 5 5 13t-2 12q-3 4-7 4t-6-2q-2-2-2-5l1-4v-5q0-5-6-8-4-3-13-3-10 0-16 4-5 4-5 11 0 5 2 8 3 4 8 6l12 6 16 7q5 3 9 8 4 6 4 13 0 16-11 24-11 7-30 7zm116-39 3 1 1 5q0 6-4 7-8 3-17 3-2 10-9 17-7 6-16 6-7 0-13-3-5-4-8-10t-3-13q0-10 4-17 4-8 10-12t14-4q10 0 15 7 6 6 7 16l15-3zm-41 26q4 0 7-3 3-4 4-10-4-3-6-7t-2-9v-4q-5 0-9 5-3 5-3 14 0 6 3 10 2 4 6 4z"/><path d="M220 107q4 0 4 5 0 10-16 10l-9-1 3 18 1 15q0 14-5 21-4 7-11 7-9 0-13-13-4-12-4-39 0-23 6-48 5-25 14-41 9-17 20-17 6 0 9 6 4 5 4 13 0 30-36 65l-1 22 1 26q1 14 3 14 3 0 3-13l-1-19-4-19 1-5 4-4q1-2 3-2h6l3 1 11-1 2-1zm-12-70q-3 0-6 7-4 8-7 21l-6 27q10-12 16-24 5-13 5-24 0-7-2-7z"/><path d="M236 96v10l1 14q0 5 3 7 2 2 6 2l5-1 5-3 2-2q2 0 3 2l1 4-1 5-3 4q-6 5-15 5-12 0-17-10-6-10-6-26l1-11h-5q-4 0-6-2l-1-4q0-7 6-7h7q2-14 7-25 4-12 10-19 7-6 14-6 5 0 8 4 3 5 3 12 0 20-16 34h14l3 1 1 3q0 9-15 9zm13-51q-2 0-4 5l-4 13q-3 8-4 18 8-6 11-14 4-8 4-15t-3-7zm168 69q2 0 3 2v4q0 5-2 8-12 15-27 15-11 0-19-9-7-10-7-27v-9l-18 3h-9l-7 31q-3 11-10 11-8 0-8-7l1-5 6-29h-6l-6-1q-2-1-2-5t3-5q2-3 8-3h7l3-27q0-6-2-8t-5-2q-8 0-20 14-1 2-3 2l-3-1-1-4 2-9q6-7 15-12 8-5 17-5 8 0 12 6 5 5 5 17 0 10-3 28l12-1 14-1 6-26q5-12 12-19 7-8 16-8 6 0 10 5 3 5 3 13 0 32-32 43v11q0 13 3 18 4 6 9 6 6 0 10-3 4-2 10-9 1-2 3-2zm-17-71q-3 0-6 5l-6 14-4 19q10-4 15-12 4-7 4-20l-1-4-2-2z"/><path d="M426 143q-8 0-13-5-4-6-4-16t4-19q5-9 13-14 7-6 16-6 3 0 4 2l2 4 5-1q6 0 6 4l-2 13-3 20 1 3 3 1 6-3 9-10q1-2 3-2t2 2l1 4q0 5-2 8l-11 11q-6 4-11 4-4 0-7-3-4-2-6-8-6 11-16 11zm4-13q3 0 6-3l3-8 5-24q-5 0-10 4-4 4-7 11-3 6-3 13 0 4 2 6l4 1z"/><path d="M478 143q-4 0-7-5l-1-16q0-16 4-31l4-5q3-2 7-2h4l1 3-2 9-2 9-1 9q4-11 9-18 5-6 10-9t9-3q8 0 8 8l-1 8-1 6q0 5 3 5 4 0 9-6l4-2 2 2 1 4q0 4-2 7l-9 6q-4 3-10 3t-10-4q-3-3-3-9l1-3v-4q0-2-2-2t-5 4l-6 12q-3 6-4 14l-4 8q-2 2-6 2z"/><path d="m573 114 3 21 1 3q0 6-7 6-4 0-6-2l-4-8v-1q-5 6-9 8-3 2-8 2-8 0-13-5-5-7-5-16 0-10 4-18 5-9 12-14 7-6 16-7 3-23 10-41t17-18q6 0 10 5 3 5 3 15 0 14-6 32-7 19-18 38zm10-78q-3 0-7 19-3 19-4 41 14-31 14-49l-1-8-2-3zm-36 94 5-1 6-8q-2-9-2-19l1-6q-7 2-11 9-5 7-5 16t6 9zm110 13q-16 0-27-6-10-6-10-19 0-7 3-11 2-4 7-4 3 0 5 2t2 5v9q0 5 5 8 6 3 16 3 11 0 17-4t6-11q0-4-3-7-2-3-7-5l-11-5-16-7q-6-4-11-10-4-6-4-14 0-9 5-16 5-8 14-11 9-4 22-4 9 0 16 2 8 3 13 9 4 5 4 13t-2 12q-2 4-7 4l-6-2q-2-2-2-5v-4l1-5q0-5-6-8-5-3-12-3-11 0-17 4-5 4-5 11 0 5 3 8 2 4 7 6l12 6 15 7q7 3 10 8 5 6 5 13 0 16-12 24-11 7-30 7zm96-59h4l1 3-3 22-4 21q-4 32-13 51-8 19-21 19-7 0-11-4t-4-11q0-6 3-12t10-14q7-8 21-18v-3l2-13q-2 9-7 14-4 4-10 4-5 0-9-5-3-5-3-13l1-17 4-17q1-4 4-6l7-1 4 1v2l-1 7-2 8-2 10v8q0 5 2 5t5-4q3-3 6-11l6-19 3-6 7-1zm-35 104q3 0 7-8 4-7 8-24-10 8-14 15-5 7-5 12l1 3q1 2 3 2zm70-42q-7 0-10-3-4-3-4-7 0-3 3-6 2-2 7-2l3 1h4q0-4-2-7l-3-5-4-5-7 13-9 9q-2 2-5 2l-3-1-1-4 2-4 1-3 11-13 5-10 5-13q3-6 10-6l6 1 1 2-1 3-1 3-2 8 1 3 4 6 6 9 2 8v4q6-2 14-13l4-2 2 2 1 4q0 5-2 8-6 8-12 11-6 2-14 2-5 5-12 5z"/><path d="M874 114q2 0 3 2l1 4q0 5-3 8-5 7-11 11-7 4-15 4-26 0-26-36l1-11h-6q-3 0-4-2-2-1-2-4 0-7 6-7h7q2-14 7-25 4-12 10-19 6-6 13-6 6 0 9 4 3 5 3 12 0 20-16 34h14l2 1 1 3q0 9-14 9h-15v10q0 13 3 18t10 5q5 0 9-3l10-10q1-2 3-2zm-22-69q-2 0-4 5-3 4-4 13l-4 18q7-6 11-14t4-15q0-7-3-7z"/><path d="M923 114q2 0 3 2l1 4q0 5-2 8l-13 10q-9 5-18 5-14 0-21-7-8-7-8-20 0-8 4-16t10-12q7-4 15-4t12 4q4 4 4 12 0 9-6 15t-21 10q3 5 12 5 6 0 13-3 7-5 12-11l3-2zm-31-18q-5 0-8 5-3 6-3 14l12-5q4-4 4-9 0-2-2-3-1-2-3-2z"/><path d="M926 143q-5 0-7-5t-2-16q0-16 5-31 1-4 3-5 3-2 8-2h3l1 3-2 9-2 9-1 9 8-17 10-10q5-3 10-3 4 0 5 2 2 2 2 6l-2 15-1 6q4-10 9-17 5-6 10-9t9-3q4 0 6 2t2 6l-1 12-2 15-1 15q0 5-2 7t-6 2q-5 0-7-2l-1-6 1-17 2-13q0-2-2-2l-4 4-6 12-5 14q-1 6-3 8t-6 2q-4 0-6-4t-2-9l1-14 1-11-1-2q-2 0-5 5l-6 11-4 14-3 8q-2 2-6 2z"/></svg>