<svg viewBox="0 0 640 480" xmlns="http://www.w3.org/2000/svg"><defs><linearGradient id="a" x1=".2" x2=".8" y1=".2" y2="1"><stop stop-color="#fff" offset="0"/><stop stop-color="#9d9fa1" offset="1"/></linearGradient><linearGradient id="b" x1=".9" x2=".1" y1=".8" y2=".2"><stop stop-color="#d6a477" offset="0"/><stop stop-color="#e4c3a8" offset="1"/></linearGradient></defs><path d="M519 563c0 145-503 145-503 0s113-262 251-262 252 117 252 262z" fill="url(#a)"/><path d="M366 321l-97 341-100-341A263 263 0 0016 563c0 145 503 145 503 0 0-109-63-202-153-242z"/><ellipse cx="267.4" cy="191" rx="167.6" ry="174.9" fill="url(#b)"/><path d="M435 257c-23 7 0-197-228-116-7 0-16-21-65-15-6 0-24 12-30 13-20 2-10-20-4-32 2-7 6-13 10-19 30-43 90-72 159-72 98 0 176 44 158 241" fill="#3f3f3f"/></svg>