<svg viewBox="0 0 105 105" xmlns="http://www.w3.org/2000/svg"><rect x="2.5" y="2.5" width="100" height="100" ry="50" fill="#0ff"/><g fill="none" stroke="#078282" stroke-linejoin="round"><rect x="8" y="8" width="89" height="89" ry="44.5"/><rect x="5" y="5" width="95" height="95" ry="47.5" stroke-dasharray="0 1.9" stroke-linecap="round"/></g><path d="M18.6 76v-.2l.2-.1q2.3 0 3.6-.6 1.3-.6 2-1.6.6-1 .8-2.4.2-1.3.2-3l.5-9 .6-8.7.5-8.4q.2-4 .2-8.3v-1.4q0-.8-.5-1.4-.5-.6-1.2-1l-1.6-.6-1.2-.2q-.3 0-.3-.3v-1.6-.2l.2-.1H35l.6.3.5.5 15.4 34.7q.2.6.6.6.4 0 .5-.2l.3-.5 15.2-34q.4-.8.8-1 .4-.4.8-.4H82l.2.1v2l-.1.2-.2.1-.8.2-1.6.6q-.8.4-1.6 1.2-.8.8-.8 2l2 38.6q0 1 .5 1.7.5.8 1.2 1.2l1.6.8 1.6.4 1.2.2h.5l.2.1.1.2v1.6l-.1.2-.2.1H62.8q-.3 0-.3-.3V76q0-.3.3-.3l2-.1 2-.4q1-.3 1.6-1 .8-.6.8-1.6l-1.6-29.2q0-.4-.2-.4t-.3.3l-15.6 34q-.2.4-.5.5l-1 .1-2-.1q-.6-.1-.8-.6l-15-33.8-.2-.4q0-.2-.2-.2t-.2.5l-.1 3.2-.3 4.7-.4 5.5-.4 5.5-.3 5-.1 4V73q.2.8.8 1.2.5.6 1.4.8.8.4 2 .6 1 .2 2.2.2l.2.1v1.8q0 .3-.2.3H18.8q-.3 0-.3-.3z" fill="#078282"/></svg>