<svg xmlns="http://www.w3.org/2000/svg" width="698" height="542" viewBox="0 0 184.7 143.4"><path d="M88 13.3l5.3 6.6h-.8q-19.8 0-36.2 10-16.4 10-21 25 10-5 19.6-5 22.2 0 35.5 21 7-26.7 26.5-42 19.6-15.6 46-15.6h1.3l5.3 6.6q-19.6 0-36.8 10.6-17.5 10.3-21 24.6 10.8-5 19.6-5 16.4 0 28.3 12 11.6 12 11.6 28.3 0 16.7-11.6 28.3-11.6 11.6-28.6 11.6-26.2 0-37.8-27-4.2 12-14.6 19.3-10.6 7.7-23.5 7.7-18 0-30-13.5-12.2-13.2-12.2-33.3 0-5.6 1.6-13Q16 63 21.2 52.7 26 42.4 33.6 34.2q7.7-8.2 22-14.3 14.3-6.4 32.5-6.6z" fill="#dc143c"/></svg>