<svg xmlns="http://www.w3.org/2000/svg" width="698" height="542" viewBox="0 0 184.7 143.4"><path d="M96.6 130.2l-5.3-6.6h.8q19.8 0 36.2-10 16.4-10 21-25-10 5-19.6 5-22.2 0-35.5-21-7 26.7-26.5 42-19.6 15.6-46 15.6h-1.3l-5.3-6.6q19.6 0 36.8-10.6 17.5-10.3 21-24.6-10.8 5-19.6 5-16.4 0-28.3-12-11.6-12-11.6-28.3Q13.2 36.5 25 25q11.6-11.6 28.6-11.6 26.2 0 37.8 27 4.2-12 14.6-19.3 10.6-7.7 23.5-7.7 18 0 30 13.5Q171.4 40 171.4 60q0 5.6-1.6 13-1.3 7.4-6.3 17.7-4.8 10.3-12.4 18.5-7.7 8.2-22 14.3-14.3 6.3-32.5 6.6z" fill="#7fff00"/></svg>